<?xml version="1.0" encoding="UTF-8" standalone="no"?>
<svg
   xmlns:dc="http://purl.org/dc/elements/1.1/"
   xmlns:cc="http://creativecommons.org/ns#"
   xmlns:rdf="http://www.w3.org/1999/02/22-rdf-syntax-ns#"
   xmlns:svg="http://www.w3.org/2000/svg"
   xmlns="http://www.w3.org/2000/svg"
   xmlns:sodipodi="http://sodipodi.sourceforge.net/DTD/sodipodi-0.dtd"
   xmlns:inkscape="http://www.inkscape.org/namespaces/inkscape"
   viewBox="0 0 16 16"
   version="1.1"
   id="svg8"
   sodipodi:docname="quote.svg"
   inkscape:version="0.92.3 (2405546, 2018-03-11)">
  <metadata
     id="metadata14">
    <rdf:RDF>
      <cc:Work
         rdf:about="">
        <dc:format>image/svg+xml</dc:format>
        <dc:type
           rdf:resource="http://purl.org/dc/dcmitype/StillImage" />
      </cc:Work>
    </rdf:RDF>
  </metadata>
  <defs
     id="defs12" />
  <sodipodi:namedview
     pagecolor="#ffffff"
     bordercolor="#666666"
     borderopacity="1"
     objecttolerance="10"
     gridtolerance="10"
     guidetolerance="10"
     inkscape:pageopacity="0"
     inkscape:pageshadow="2"
     inkscape:window-width="1920"
     inkscape:window-height="1057"
     id="namedview10"
     showgrid="false"
     inkscape:zoom="5.2149125"
     inkscape:cx="23.186894"
     inkscape:cy="16.577578"
     inkscape:window-x="-8"
     inkscape:window-y="-8"
     inkscape:window-maximized="1"
     inkscape:current-layer="g6" />
  <rect
     x="0"
     fill="none"
     width="16"
     height="16"
     id="rect2" />
  <g
     id="g6">
    <path
       d="M 4.5786375,9 H 5 c 0,1.1 -0.9,2 -2,2 v 2 C 5.2,13 7,11.2 7,9 V 6.5 C 7.0002731,3.9943977 7.009231,4 4.5,4 1.9943977,4.0166761 2.0338983,4.0331419 2,6.5 2.0108379,9.0232895 2.0400397,9 4.5786375,9 Z M 9,6.5 C 9.0228227,8.9873349 9.0400397,9 11.578637,9 H 12 c 0,1.1 -0.9,2 -2,2 v 2 c 2.2,0 4,-1.8 4,-4 V 6.5 C 14.024243,4.0183674 14.009231,4 11.5,4 8.9943977,4.0236967 9,4.0506933 9,6.5 Z"
       id="path4"
       inkscape:connector-curvature="0"
       sodipodi:nodetypes="ccccscccccccccsccc" />
  </g>
</svg>
